<svg width="1200" height="720" viewBox="0 0 1200 720" fill="none" xmlns="http://www.w3.org/2000/svg">
  <rect width="1200" height="720" rx="32" fill="#161311"/>
  <rect x="36" y="36" width="1128" height="648" rx="26" fill="url(#bg)"/>
  <rect x="76" y="84" width="270" height="552" rx="24" fill="#201A16" fill-opacity="0.9" stroke="#D4AF37" stroke-opacity="0.25"/>
  <rect x="386" y="84" width="738" height="108" rx="24" fill="#FFF8EE" fill-opacity="0.08" stroke="#F3E5AB" stroke-opacity="0.18"/>
  <rect x="386" y="224" width="354" height="180" rx="24" fill="#FFF8EE" fill-opacity="0.08"/>
  <rect x="770" y="224" width="354" height="180" rx="24" fill="#FFF8EE" fill-opacity="0.08"/>
  <rect x="386" y="436" width="738" height="160" rx="24" fill="#FFF8EE" fill-opacity="0.08"/>
  <circle cx="134" cy="136" r="20" fill="#D4AF37"/>
  <rect x="172" y="120" width="120" height="18" rx="9" fill="#F3E5AB" fill-opacity="0.85"/>
  <rect x="108" y="206" width="206" height="16" rx="8" fill="#FFF8EE" fill-opacity="0.15"/>
  <rect x="108" y="242" width="170" height="16" rx="8" fill="#FFF8EE" fill-opacity="0.12"/>
  <rect x="108" y="278" width="194" height="16" rx="8" fill="#FFF8EE" fill-opacity="0.12"/>
  <rect x="108" y="356" width="206" height="110" rx="18" fill="#D4AF37" fill-opacity="0.12" stroke="#D4AF37" stroke-opacity="0.28"/>
  <path d="M462 322C532 262 595 294 650 338C704 381 770 411 835 352C900 294 970 292 1042 334" stroke="#D4AF37" stroke-width="12" stroke-linecap="round"/>
  <circle cx="462" cy="322" r="10" fill="#F3E5AB"/>
  <circle cx="650" cy="338" r="10" fill="#F3E5AB"/>
  <circle cx="835" cy="352" r="10" fill="#F3E5AB"/>
  <circle cx="1042" cy="334" r="10" fill="#F3E5AB"/>
  <text x="108" y="520" fill="#F3E5AB" font-size="34" font-family="Arial, sans-serif" font-weight="700">Feedback Intake</text>
  <text x="108" y="564" fill="#FFF8EE" fill-opacity="0.72" font-size="22" font-family="Arial, sans-serif">Lambda • API Gateway • DynamoDB • S3</text>
  <text x="430" y="146" fill="#F3E5AB" font-size="34" font-family="Arial, sans-serif" font-weight="700">Serverless Feedback Dashboard</text>
  <text x="430" y="180" fill="#FFF8EE" fill-opacity="0.72" font-size="22" font-family="Arial, sans-serif">Realtime collection and low-maintenance backend flow</text>
  <defs>
    <linearGradient id="bg" x1="64" y1="60" x2="1136" y2="660" gradientUnits="userSpaceOnUse">
      <stop stop-color="#2A211C"/>
      <stop offset="1" stop-color="#15110E"/>
    </linearGradient>
  </defs>
</svg>
