<svg width="1200" height="720" viewBox="0 0 1200 720" fill="none" xmlns="http://www.w3.org/2000/svg">
  <rect width="1200" height="720" rx="32" fill="#1A1817"/>
  <rect x="36" y="36" width="1128" height="648" rx="26" fill="url(#bg)"/>
  <rect x="88" y="96" width="1024" height="72" rx="20" fill="#FFF8EE" fill-opacity="0.08"/>
  <rect x="88" y="208" width="300" height="400" rx="28" fill="#FFF8EE" fill-opacity="0.08" stroke="#B87333" stroke-opacity="0.3"/>
  <rect x="424" y="208" width="320" height="190" rx="28" fill="#FFF8EE" fill-opacity="0.08"/>
  <rect x="780" y="208" width="332" height="400" rx="28" fill="#FFF8EE" fill-opacity="0.08"/>
  <rect x="424" y="430" width="320" height="178" rx="28" fill="#FFF8EE" fill-opacity="0.08"/>
  <circle cx="146" cy="132" r="18" fill="#B87333"/>
  <rect x="182" y="120" width="210" height="22" rx="11" fill="#F3E5AB" fill-opacity="0.9"/>
  <rect x="124" y="250" width="228" height="132" rx="22" fill="#B87333" fill-opacity="0.16"/>
  <rect x="124" y="410" width="172" height="16" rx="8" fill="#FFF8EE" fill-opacity="0.18"/>
  <rect x="124" y="444" width="194" height="16" rx="8" fill="#FFF8EE" fill-opacity="0.12"/>
  <rect x="462" y="252" width="100" height="100" rx="22" fill="#D4AF37" fill-opacity="0.2"/>
  <rect x="590" y="252" width="100" height="100" rx="22" fill="#D4AF37" fill-opacity="0.12"/>
  <rect x="820" y="246" width="252" height="18" rx="9" fill="#FFF8EE" fill-opacity="0.22"/>
  <rect x="820" y="286" width="216" height="18" rx="9" fill="#FFF8EE" fill-opacity="0.14"/>
  <rect x="820" y="338" width="252" height="120" rx="20" fill="#D4AF37" fill-opacity="0.12" stroke="#D4AF37" stroke-opacity="0.24"/>
  <rect x="462" y="470" width="244" height="18" rx="9" fill="#FFF8EE" fill-opacity="0.2"/>
  <rect x="462" y="508" width="212" height="18" rx="9" fill="#FFF8EE" fill-opacity="0.12"/>
  <text x="122" y="540" fill="#F3E5AB" font-size="34" font-family="Arial, sans-serif" font-weight="700">Menu &amp; Ordering</text>
  <text x="122" y="580" fill="#FFF8EE" fill-opacity="0.72" font-size="22" font-family="Arial, sans-serif">Responsive cafeteria flow with cart and checkout</text>
  <text x="454" y="150" fill="#F3E5AB" font-size="34" font-family="Arial, sans-serif" font-weight="700">Smart Serve Cafeteria</text>
  <defs>
    <linearGradient id="bg" x1="84" y1="64" x2="1120" y2="660" gradientUnits="userSpaceOnUse">
      <stop stop-color="#2D221C"/>
      <stop offset="1" stop-color="#17120F"/>
    </linearGradient>
  </defs>
</svg>
